<svg xmlns="http://www.w3.org/2000/svg" width="598" height="399" viewBox="0 0 598 399">
    <g fill="none" fill-rule="evenodd">
        <g transform="translate(-712.000000, -133.000000) translate(712.000000, 133.517000)">
            <path stroke="#FFF" stroke-width=".916" d="M353.555 282.589c.525-.09 1.048-.18 1.57-.272 141.637-25.033 140.4-154.944 128.668-282.29"/>
            <path stroke="#FFF" stroke-width=".786" d="M236.547 124.767c61.366 64.772 293.346 68.142 291.848-100.258"/>
            <path fill="#000" fill-rule="nonzero" d="M43.398 141.042H251.882V169.266H43.398zM66.847 176.851H272.404V205.075H66.847zM66.163 212.659H271.71999999999997V240.88299999999998H66.163zM0 248.467H228.98V276.69100000000003H0zM.032 284.555H231.227V312.779H.032zM43.398 320.363H274.593V348.587H43.398z"/>
            <path stroke="#FFF" stroke-width=".97" d="M236.376 93.504L236.376 0 556.575 0 556.575 341.689"/>
            <path stroke="#FFF" stroke-width=".786" d="M518.424 35.177L528.403 24.61 538.629 35.527"/>
            <path stroke="#FFF" stroke-width=".916" d="M358.297.31c-7.076 51.283 11.772 110.449 37.88 155.152 27.583 47.226 107.15 78.38 159.46 86.724"/>
            <path stroke="#FFF" stroke-width=".916" d="M245.101 58.553C293.78 11.239 383.075 25.048 414.23 73.368c39.88 61.855 40.79 204.238 143.095 208.718"/>
            <path stroke="#FFF" stroke-linecap="round" stroke-width=".981" d="M543.31 284.93L489.948 284.93"/>
            <path fill="#FFF" fill-rule="nonzero" d="M106.96 58.927v-.156c-12.845 0-23.417-10.887-23.417-23.732h-.123c0 12.536-10.137 23.248-22.554 23.732l.006.135c12.068.662 21.75 10.217 22.569 22.276h.115c.802-12.387 10.992-22.077 23.404-22.255z"/>
            <path fill="#000" fill-rule="nonzero" d="M356.566 153.837s15.383-4.7 19.205-19.205c1.332-5.395 4.29-10.25 8.474-13.909 4.635-3.924 10.36-4.869 15.614-7.632 6.783-3.568 12.335-9.327 14.322-16.87 4.471-16.968 19.205-19.205 19.205-19.205L463.57 107.2s-14.734 2.237-19.205 19.206c-1.987 7.542-7.54 13.3-14.322 16.869-5.254 2.763-10.98 3.708-15.614 7.632-4.184 3.658-7.142 8.514-8.474 13.909-3.822 14.505-19.206 19.205-19.206 19.205l-30.182-30.183z"/>
            <path fill="#FFF" fill-rule="nonzero" d="M388.951 165.502c-.798.001-1.59.14-2.342.41-2.54-5.295-6.928-9.48-12.338-11.765-2.155-.909-4.433-1.495-6.76-1.74-.845-.088-1.695-.133-2.546-.133-9.238-.001-17.657 5.303-21.643 13.638-2.624-.934-5.553-.221-7.455 1.814-1.902 2.036-2.414 5.006-1.304 7.56 1.11 2.556 3.631 4.208 6.417 4.207.075 0 .147-.008.222-.01 1.61 11.891 11.763 20.762 23.764 20.762 12 0 22.153-8.87 23.763-20.763.075.003.147.011.222.011 3.864 0 6.996-3.132 6.996-6.996 0-3.863-3.132-6.995-6.996-6.995z"/>
            <path fill="#FFF" fill-rule="nonzero" d="M349.218 158.168c-2.472 2.153-4.478 4.788-5.896 7.744-2.624-.934-5.553-.221-7.455 1.814-1.902 2.036-2.414 5.006-1.304 7.56 1.11 2.556 3.631 4.208 6.417 4.207.075 0 .147-.008.222-.01 1.518 11.208 10.662 19.833 21.941 20.693 11.279.86 21.625-6.277 24.826-17.126"/>
            <path d="M387.97 183.05c.343-1.168.597-2.361.76-3.568.074.003.146.011.221.011 2.79.008 5.319-1.644 6.433-4.203 1.114-2.558.601-5.535-1.306-7.572-1.907-2.038-4.842-2.748-7.47-1.806-4.805-10.025-15.862-15.442-26.73-13.097"/>
            <path fill="#000" fill-rule="nonzero" d="M363.57 177.068l.002 3.584c.002.908.738 1.643 1.646 1.642.908 0 1.643-.736 1.643-1.644l-.003-3.584c0-.436-.174-.854-.483-1.162-.308-.308-.727-.48-1.163-.48-.907 0-1.643.737-1.642 1.644zM349.078 177.068l.003 3.584c.001.908.738 1.643 1.646 1.642.907 0 1.643-.736 1.643-1.644l-.003-3.584c0-.436-.174-.854-.483-1.162-.309-.308-.727-.48-1.163-.48-.907 0-1.643.737-1.643 1.644zM349.199 158.203c4.371-3.89 10.001-6.072 15.853-6.14 1.028-.09 2.061-.113 3.093-.07 2.444.375 4.865.88 7.255 1.516 3.12 1.014 2.918 2.583 5.332 4.694h-31.533z"/>
            <path stroke="#00E73D" stroke-width=".981" d="M463.806 283.367H485.977V376.97900000000004H463.806z" transform="translate(474.891460, 330.173090) rotate(-180.000000) translate(-474.891460, -330.173090)"/>
            <path stroke="#00E73D" stroke-linecap="round" stroke-linejoin="round" stroke-width=".981" d="M474.971 314.747L474.971 298.657"/>
            <circle cx="475.93" cy="297.688" r="6.752" fill="#00E73D" fill-rule="nonzero"/>
            <path fill="#FFF" fill-rule="nonzero" d="M464.112 210.947h-86.773c-8.282-.056-16.151 3.61-21.437 9.985L247.178 329.656l-22.696 60.57 85.075 1.808 79.494-79.493 43.227 71.653h59.79c.023-.47.036-.944.036-1.42V238.938c0-15.46-12.533-27.992-27.992-27.992z"/>
            <path stroke="#FF318C" stroke-width=".916" d="M435.131 292.291c-8.025-8-12.88-18.637-13.67-29.942"/>
            <path fill="#FFF" fill-rule="nonzero" d="M584.211 308.506l-82.794-82.793c-8.828-8.83-20.803-13.79-33.289-13.79s-24.46 4.96-33.29 13.79c-17.413 17.418-18.455 45.317-2.388 63.985l12.564 15.275-13.922-.007.81 84.656 116.07-.852c14.28.054 26.296-3.742 36.239-13.685 18.385-18.385 18.385-48.194 0-66.579z"/>
            <path stroke="#FFF" stroke-linecap="round" stroke-linejoin="round" stroke-width=".981" d="M375.909 291.13L353.371 253.398M359.663 264.268L347.521 264.268"/>
            <path d="M471.492 211.969H376.06c-8.282-.056-16.151 3.61-21.437 9.985L245.899 330.678l62.379 62.378 79.493-79.494 45.928 64.476 58.315 2.073c.023-.47-1.19 4.16-1.19 3.684"/>
            <path stroke="#FC801D" stroke-linecap="round" stroke-linejoin="round" stroke-width=".916" d="M390.086 315.095L353.095 253.607M369.24 280.947L330.844 280.947"/>
            <path fill="#FFF" fill-rule="nonzero" d="M436.792 364.903v24.93h-61.29c-6.332 0-11.465-5.133-11.465-11.465v-4.448l-2.872 7.806-62.787-7.005 12.771-34.489-2.343-4.411-35.914 15.797-20.098-5.178 13.683-18.505 39.909-15.91 130.406 52.878z"/>
            <path fill="#FF318C" fill-rule="nonzero" d="M375.342 390.593h61.725v-1.028h-61.725c-5.962-.006-10.794-4.837-10.8-10.8v-4.845h-1.029v4.845c.008 6.53 5.3 11.821 11.83 11.828z"/>
            <circle cx="349.323" cy="377.564" r="12.058" fill="#FFF" fill-rule="nonzero"/>
            <circle cx="329.277" cy="377.564" r="12.058" fill="#FFF" fill-rule="nonzero"/>
            <circle cx="310.765" cy="377.564" r="12.058" fill="#FFF" fill-rule="nonzero"/>
            <path fill="#FC801D" fill-rule="nonzero" d="M413.99 355.692c.246 0 .457-.174.504-.416.047-.242-.084-.483-.312-.575l-103.46-41.8c-3.157-1.286-6.698-1.255-9.832.086l-32.517 13.8c-4.227 1.793-7.176 5.704-7.737 10.26-.56 4.558 1.354 9.067 5.021 11.83 3.667 2.762 8.53 3.358 12.755 1.562l24.019-10.195c2.858-1.219 6.083-1.258 8.971-.109.17.068.364.039.508-.075.144-.114.216-.297.189-.478-.027-.182-.149-.335-.32-.402-3.137-1.253-6.644-1.21-9.75.119l-24.019 10.195c-6.007 2.544-12.94-.26-15.49-6.266-2.549-6.006.25-12.941 6.254-15.495l32.518-13.8c2.883-1.232 6.14-1.26 9.045-.078l103.46 41.8c.06.024.126.037.192.037z"/>
            <path fill="#FC801D" fill-rule="nonzero" d="M349.163 390.59c5.26.001 9.992-3.194 11.957-8.073l7.315-18.172c.106-.263-.021-.563-.285-.668-.263-.106-.562.021-.668.284l-7.315 18.173c-2.437 6.068-9.33 9.013-15.4 6.576-6.068-2.436-9.012-9.33-6.576-15.399l7.723-19.03c2.4-5.94 7.06-10.684 12.957-13.187 5.897-2.503 12.547-2.562 18.487-.162l53.95 21.652c.262.106.562-.02.669-.284.106-.263-.021-.563-.284-.67l-53.95-21.651c-12.895-5.21-27.572 1.02-32.782 13.915l-7.722 19.032c-1.592 3.962-1.115 8.457 1.275 11.996 2.389 3.54 6.379 5.663 10.649 5.668z"/>
            <path fill="#FC801D" fill-rule="nonzero" d="M329.443 390.586c4.01.004 7.794-1.857 10.238-5.036.17-.226.126-.547-.099-.718-.224-.172-.545-.13-.718.093-3.6 4.698-10.117 6.016-15.26 3.086-5.143-2.93-7.333-9.207-5.129-14.7l10.532-25.862c5.008-12.358 19.075-18.33 31.444-13.347.263.106.563-.021.67-.284.106-.264-.021-.563-.285-.67-12.894-5.19-27.557 1.034-32.781 13.915l-10.532 25.863c-1.595 3.961-1.12 8.456 1.27 11.996 2.389 3.54 6.38 5.662 10.65 5.664z"/>
            <path fill="#FC801D" fill-rule="nonzero" d="M310.53 390.597c3.807 0 7.416-1.69 9.854-4.612.182-.218.153-.542-.065-.724-.217-.182-.541-.153-.724.064-3.738 4.463-10.165 5.547-15.16 2.557-4.996-2.99-7.076-9.168-4.908-14.57l12.579-32.702c5-12.364 19.074-18.335 31.44-13.339l61.189 24.723c.17.069.364.042.51-.071.144-.113.218-.295.192-.477-.026-.182-.146-.337-.317-.405l-61.19-24.723c-6.192-2.502-13.124-2.442-19.272.168-6.148 2.61-11.007 7.554-13.509 13.747l-12.579 32.702c-1.585 3.968-1.1 8.464 1.297 12.003 2.396 3.538 6.39 5.658 10.664 5.66z"/>
            <path stroke="#FC801D" stroke-linecap="round" stroke-linejoin="round" stroke-width=".981" d="M528.388 305.86L431.539 305.015 431.539 389.844"/>
            <path stroke="#FC801D" d="M447.645 304.805l-12.514-12.514c-18.385-18.385-18.385-48.193 0-66.578h0c8.83-8.83 20.804-13.79 33.29-13.79s24.46 4.96 33.29 13.79l32.153 31.087"/>
            <path fill="#000" fill-rule="nonzero" d="M42.014 105.234H250.49800000000002V133.458H42.014z"/>
            <path fill="#FFF" fill-rule="nonzero" d="M128.57 105.426v-.084c-6.994-.114-12.61-5.805-12.63-12.8h-.066c-.036 6.81-5.365 12.418-12.165 12.8l.003.073c6.51.357 11.73 5.51 12.173 12.014h.062c.433-6.68 5.928-11.907 12.623-12.003zM74.63 154.273v-.049c-4.051-.066-7.305-3.363-7.316-7.415h-.038c-.02 3.946-3.108 7.194-7.048 7.415l.002.042c3.77.207 6.796 3.193 7.052 6.96h.036c.25-3.87 3.434-6.897 7.313-6.953zM244.726 235.487l1.26-1.263c4.597-4.597 4.597-12.049 0-16.645-4.596-4.596-12.048-4.596-16.644 0l7.074-7.122c2.977-2.973 4.141-7.309 3.053-11.373-1.088-4.064-4.262-7.238-8.326-8.326-4.064-1.088-8.4.077-11.372 3.054l7.086-7.17c2.207-2.207 3.447-5.2 3.447-8.322 0-3.121-1.24-6.115-3.447-8.322-2.208-2.207-5.201-3.447-8.323-3.447-3.121 0-6.115 1.24-8.322 3.447l2.706-2.67c1.07-1.071 2.337-1.926 3.73-2.516l22.947-9.721c2.874-1.22 5.145-3.531 6.314-6.425 1.17-2.894 1.141-6.135-.079-9.008-2.54-5.983-9.449-8.775-15.432-6.235l-27.2 11.545c-1.224.525-2.35 1.253-3.33 2.155l.134-.133-4.51-11.164c-2.436-6.026-9.296-8.938-15.322-6.503-2.895 1.17-5.206 3.44-6.426 6.314-1.22 2.873-1.247 6.113-.078 9.007l8.237 20.387.002-.002-15.007 14.99c-6.498 6.49-8.484 16.237-5.044 24.752l10.952 27.106v92.598h94.706v-66.341c0-6.03-2.405-11.812-6.682-16.063-4.278-4.251-10.074-6.621-16.104-6.584z"/>
            <path fill="#FFF" fill-rule="nonzero" stroke="#FC801D" stroke-width=".981" d="M185.183 195.027l25.029-25.029c4.596-4.596 12.048-4.596 16.645 0h0c4.596 4.596 4.596 12.048 0 16.645l-25.03 25.029M194.785 218.775l24.986-24.963c4.596-4.596 12.048-4.596 16.645 0h0c4.596 4.596 4.596 12.049 0 16.645l-25.03 25.029"/>
            <path fill="#FFF" fill-rule="nonzero" stroke="#FC801D" stroke-width=".981" d="M204.36 242.473l24.982-24.894c4.596-4.596 12.048-4.596 16.644 0h0c4.597 4.596 4.597 12.048 0 16.645l-32.007 32.058"/>
            <path fill="#FFF" fill-rule="nonzero" stroke="#FC801D" stroke-width=".981" d="M192.7 281.115l-30.846-76.344c-3.44-8.515-1.454-18.262 5.044-24.752l32.577-32.54c1.069-1.068 2.333-1.92 3.724-2.51l27.199-11.546c5.983-2.54 12.893.252 15.432 6.235h0c2.54 5.984-.251 12.893-6.235 15.433l-22.946 9.721c-1.394.59-2.661 1.445-3.732 2.515l-23.397 23.398"/>
            <path fill="#FFF" fill-rule="nonzero" stroke="#FC801D" stroke-width=".916" d="M99.721 284.835H267.696V393.965H99.721z"/>
            <circle cx="183.32" cy="338.921" r="5.718" fill="#000" fill-rule="nonzero"/>
            <path stroke="#000" stroke-linecap="round" stroke-linejoin="round" stroke-width="7.846" d="M99.721 393.965L364.74 393.965"/>
            <path fill="#000" fill-rule="nonzero" d="M255.965 55.332c-6.18-21.438-26.864-34.3-46.2-28.726-.622.18-1.234.375-1.836.588l-.008-.006-.237.1c-1.116.401-2.21.862-3.276 1.381l-13.926 5.872 2.086 3.747c-7.648 9.693-10.57 23.55-6.629 37.227 5.911 20.508 25.096 33.154 43.677 29.336l.77 1.383 10.71-5.915.05-.225c13.446-8.816 19.955-26.943 14.819-44.762z"/>
            <ellipse cx="208.248" cy="71.575" fill="#FFF" fill-rule="nonzero" rx="38.312" ry="41.127" transform="translate(208.247741, 71.574616) rotate(-32.568000) translate(-208.247741, -71.574616)"/>
            <path stroke="#FC801D" d="M184.556 37.905L228.834 107.225"/>
            <path stroke="#FC801D" stroke-linecap="round" stroke-linejoin="round" d="M226.023 49.64c-29.324-12.406-55.964 11.214-50.367 25.519 3.912 9.998 14.739 6.495 30.104-3.32 15.365-9.813 30.497-9.034 33.533.673 3.395 10.855-13.983 32.289-44.158 27.294"/>
        </g>
    </g>
</svg>
